
                         =!Kharay Small Rips Rocker'zzz!=


An ex-con sets out to avenge his brother's death after they were double-crossed during a heist years ago. During his campaign, however, he's tracked by a veteran cop and an egocentric hit man. 


General INFO:


Format                           : Matroska
File size                        : 937 MiB
Duration                         : 1h 37mn
Overall bit rate                 : 1 337 Kbps
Movie name                       : Faster 2010 BRrip 720p Dual Audio [AC3-6CH] [Eng-Hindi] - Henry[-=KSRR=-]
Encoded date                     : UTC 2011-03-27 06:26:20
Writing application              : mkvmerge v4.2.0 ('No Talking') built on Jul 28 2010 18:38:23
Writing library                  : libebml v1.0.0 + libmatroska v1.0.0


Video
ID                               : 1
Format                           : AVC
Format/Info                      : Advanced Video Codec
Format profile                   : High@L4.1
Format settings, CABAC           : Yes
Format settings, ReFrames        : 5 frames
Muxing mode                      : Container profile=Unknown@4.1
Codec ID                         : V_MPEG4/ISO/AVC
Duration                         : 1h 37mn
Bit rate                         : 697 Kbps
Width                            : 1 280 pixels
Height                           : 536 pixels
Display aspect ratio             : 2.35:1
Frame rate                       : 23.976 fps
Color space                      : YUV
Chroma subsampling               : 4:2:0
Bit depth                        : 8 bits
Scan type                        : Progressive
Bits/(Pixel*Frame)               : 0.042
Stream size                      : 470 MiB (50%)
Title                            : Ripped BY Henry[-=KSRR=-]
Writing library                  : x264  

Audio #1
ID                               : 2
Format                           : AC-3
Format/Info                      : Audio Coding 3
Mode extension                   : CM (complete main)
Codec ID                         : A_AC3
Duration                         : 1h 37mn
Bit rate mode                    : Constant
Bit rate                         : 320 Kbps
Channel(s)                       : 6 channels
Channel positions                : Front: L C R, Side: L R, LFE
Sampling rate                    : 48.0 KHz
Bit depth                        : 16 bits
Stream size                      : 224 MiB (24%)
Title                            : Henry[-=KSRR=-]

Audio #2
ID                               : 3
Format                           : AC-3
Format/Info                      : Audio Coding 3
Mode extension                   : CM (complete main)
Codec ID                         : A_AC3
Duration                         : 1h 37mn
Bit rate mode                    : Constant
Bit rate                         : 320 Kbps
Channel(s)                       : 6 channels
Channel positions                : Front: L C R, Side: L R, LFE
Sampling rate                    : 48.0 KHz
Bit depth                        : 16 bits
Stream size                      : 224 MiB (24%)
Title                            : Henry[-=KSRR=-]
Language                         : Hindi

Screens:
 
http://www.postimg.com/32000/photo-31459.jpg 
http://www.postimg.com/32000/photo-31460.jpg 
http://www.postimg.com/32000/photo-31462.jpg 
http://www.postimg.com/32000/photo-31461.jpg 
http://www.postimg.com/32000/photo-31463.jpg 
http://www.postimg.com/32000/photo-31464.jpg 
http://www.postimg.com/32000/photo-31465.jpg 
http://www.postimg.com/32000/photo-31466.jpg 
http://www.postimg.com/32000/photo-31467.jpg 
http://www.postimg.com/32000/photo-31468.jpg


Sample Incluse In Torrent

ENJOY...	